<?xml version="1.0" encoding="utf-8"?>
<!-- Generator: Adobe Illustrator 18.1.0, SVG Export Plug-In . SVG Version: 6.00 Build 0)  -->
<svg version="1.1" xmlns="http://www.w3.org/2000/svg" xmlns:xlink="http://www.w3.org/1999/xlink" x="0px" y="0px"
	 viewBox="0 0 1280 800" enable-background="new 0 0 1280 800" xml:space="preserve">
<g id="ios">
	<linearGradient id="SVGID_1_" gradientUnits="userSpaceOnUse" x1="729.8274" y1="65.1498" x2="550.4583" y2="734.5645">
		<stop  offset="0" style="stop-color:#94CBFF"/>
		<stop  offset="1" style="stop-color:#2A89FF"/>
	</linearGradient>
	<circle fill="url(#SVGID_1_)" cx="640.1" cy="399.9" r="346.4"/>
	<path fill="#FFFFFF" d="M630.6,264.9c2.2-10.1,1.4-19.4,2.2-29.4V234c1.4-0.7,1.4-5.7,1.4-8.6s0.7-5.7,0.7-8.6c0-2.2,0.7-5,0.7-7.9
		c0-7.2-1.4-15.1-0.7-23c0.7-5.7,2.2-11.5,2.2-18c0-1.4-0.7-3.6,0-5c0-0.7,0.7-5,1.4-6.5c0-0.7,0.7-2.2,0.7-2.9
		c0-0.7,1.4-1.4,1.4-1.4c0.7-0.7,0-2.2,0.7-2.9c0-0.7,1.4-0.7,1.4-1.4c1.4-2.2,4.3-3.6,8.6-4.3c0.7,0,2.2,0,2.9,0
		c5-1.4,12.2-0.7,16.5,0.7h1.4v0.7h1.4v0.7c1.4,0.7,3.6,0,4.3,0.7c0,0,1.4,1.4,2.2,2.2c0.7,0.7,0,1.4,0.7,2.2l1.4,0.7v1.4h0.7v1.4
		c0.7,0.7,0.7,0.7,0.7,1.4c0.7,2.2,0.7,8.6,0,13.6c0,0-0.7,0-0.7,0.7c0,2.2-0.7,5-1.4,7.9c0,0.7,0,0.7,0,1.4
		c-0.7,2.2-1.4,8.6-1.4,12.9c0,0.7-0.7,1.4-0.7,2.2c0,2.2,0.7,6.5,0,9.3c0,2.2-0.7,3.6-1.4,5c0,0-0.7,0-0.7,0.7
		c-0.7,3.6-0.7,10.1-1.4,15.1c-0.7,5.7-1.4,10.1-2.2,15.8c0,1.4-0.7,3.6-0.7,5c0,3.6,1.4,6.5,1.4,10.1c0,3.6,0,7.2,0,11.5
		c5,2.9,9.3,2.2,15.8,2.9c2.2,0,3.6,0.7,5,0.7c7.2,0.7,14.4,0.7,20.8,2.2c1.4,0,3.6,0.7,6.5,1.4c0.7,0,0.7,0,1.4,0s1.4,0.7,2.2,0.7
		s1.4,0.7,2.2,0.7c0.7,0,1.4,1.4,2.9,1.4c2.2,0.7,3.6,0,5,0.7c2.2,0.7,4.3,0.7,6.5,1.4c0.7,0,1.4,0.7,2.2,0.7s0.7,0.7,0.7,0.7
		c1.4,0.7,3.6,0,5,0.7c0.7,0,0.7,1.4,1.4,1.4s1.4,0,2.2,0.7c0,0,3.6,3.6,3.6,4.3c0,1.4,1.4,1.4,1.4,2.9c0,0.7,1.4,0.7,1.4,1.4
		c0,0.7,0,1.4,0,1.4c0,0.7,1.4,0.7,1.4,0.7v1.4h0.7c0.7,1.4,0.7,4.3,1.4,5c0,0.7,0.7,0,0.7,0.7c0,0,0.7,1.4,0.7,2.2l0.7,0.7
		c0.7,3.6,0,7.9,0.7,12.2l0.7,0.7c0,0.7,0,2.9,0,4.3c0,2.2,0.7,3.6,0.7,5c0,3.6-0.7,7.2-0.7,10.8s-0.7,7.2-0.7,10.8
		c-0.7,7.2,0,15.1-0.7,22.3c0,4.3-2.2,8.6-2.2,12.9c-0.7,5.7,0.7,10.1,0,13.6c0,1.4-0.7,3.6-1.4,5c0,0.7-0.7,0-0.7,0.7
		c0,2.2-2.2,3.6-3.6,5c-0.7,0.7-1.4,1.4-2.2,2.2v1.4l-1.4,0.7c-0.7,0.7-0.7,2.2-1.4,2.9H752l-0.7,1.4h-1.4l-0.7,1.4h-1.4l-0.7,1.4
		c-2.9,1.4-6.5,1.4-10.8,2.2c0,0,0,0.7-0.7,0.7c-2.9,0-6.5,1.4-10.1,1.4c-6.5,0.7-13.6-0.7-20.1,2.2c-1.4,4.3,0.7,9.3,0.7,13.6
		c0,1.4-0.7,1.4-0.7,2.9c-0.7,3.6-0.7,7.9-1.4,12.2c-0.7,2.2-0.7,4.3-1.4,6.5v1.4c-1.4,0.7-1.4,4.3-2.2,6.5v1.4
		c-1.4,0.7,0.7,3.6-0.7,4.3c-1.4,0.7-1.4,3.6-2.2,5c-0.7,1.4-2.2,5-3.6,6.5c-0.7,0.7-2.2,2.2-2.9,2.9c-0.7,0.7-1.4,0.7-1.4,1.4v1.4
		c-1.4,0.7-2.2,2.2-2.9,3.6c-0.7,0.7-1.4,0.7-1.4,1.4c-0.7,0.7,0,1.4-0.7,2.2c-0.7,0.7-2.2,2.2-2.9,2.9c-1.4,2.2-2.9,3.6-5,5
		c-0.7,0,0,0.7-0.7,0.7c-1.4,0-2.9,2.2-4.3,2.9c-1.4,1.4-2.9,2.9-5,4.3c-0.7,0.7-2.9,3.6-4.3,3.6c-0.7,0-0.7,1.4-1.4,1.4h-1.4
		c0,0-2.2,2.2-3.6,2.2s-4.3,2.2-5.7,2.9c-2.9,1.4-5,2.2-8.6,2.9c0,0,0,0.7-0.7,0.7c-1.4,0-2.2,0-2.9,0.7c-0.7,0-2.2,0.7-3.6,1.4
		c-2.2,0.7-3.6,0.7-5,1.4c0,0,0,0.7-0.7,0.7c-2.9,0-6.5,0.7-9.3,2.9c0,5.7,0,12.2,2.2,15.8l0.7,0.7c0.7,0.7,0,2.2,0.7,2.9l1.4,0.7
		c0,0.7,0,1.4,0,1.4l1.4,0.7c0.7,0.7,0.7,2.2,2.2,3.6h1.4c0.7,0.7,0.7,1.4,2.2,2.2c0.7,0.7,1.4,0.7,2.2,1.4c1.4,0.7,3.6,2.2,5.7,2.9
		h1.4c0.7,0.7,1.4,1.4,2.2,1.4h1.4v0.7h1.4v0.7h1.4c0.7,0.7,2.2,0.7,4.3,1.4c0,0,0,0.7,0.7,0.7h2.2c1.4,2.2,7.9,2.9,12.2,2.2
		c2.2,0,3.6-0.7,5.7-1.4c3.6-0.7,12.2,0,15.8-1.4h1.4v-0.7h1.4l0.7-1.4h1.4l0.7-1.4c0.7-0.7,2.2,0,2.9-0.7c0,0,0-0.7,0.7-0.7
		c2.9,0,7.2-2.9,10.8-3.6c7.2-2.9,15.1-6.5,24.4-6.5c4.3,0,10.1,0,15.1,0.7c5,0,10.1,0.7,14.4,1.4s8.6,2.2,12.9,2.9
		c2.9,0.7,5,0,7.9,0.7c0,0,0,0.7,0.7,0.7c2.2,0,2.2,0.7,3.6,0.7s2.2,0.7,3.6,1.4c0.7,0,2.2,0,2.9,0.7c0.7,0,1.4,1.4,1.4,1.4
		c0.7,0.7,1.4,0,2.2,0.7c0.7,0.7,0.7,1.4,1.4,1.4h1.4c0.7,0.7,1.4,0.7,2.2,1.4c1.4,0.7,2.2,1.4,3.6,2.2c0.7,0,0,0.7,0.7,0.7h0.7
		c0.7,0.7,2.2,2.2,2.9,2.9c0.7,0.7,1.4,0,2.2,0.7c0.7,0,0.7,1.4,0.7,1.4c0.7,0.7,1.4,0,2.2,0.7c0.7,0.7,1.4,2.2,2.9,2.9
		c2.9,1.4,5,5.7,7.9,9.3c1.4,2.2,2.9,3.6,4.3,5.7c0.7,0.7,1.4,0.7,1.4,1.4v1.4l1.4,0.7v1.4l1.4,0.7v1.4c1.4,0.7,2.9,2.9,3.6,5
		c0.7,0.7,0.7,2.2,1.4,3.6c0.7,0.7,0.7,1.4,0.7,2.2c0,0.7,0.7,4.3,1.4,7.9c0,2.2,0.7,5,0.7,6.5c0,0-0.7,0-0.7,0.7
		c0,2.2-0.7,4.3-2.2,5.7c-0.7,0.7-0.7,1.4-1.4,2.2c-0.7,0.7-2.2,4.3-3.6,5h-1.4c-0.7,0.7-1.4,1.4-2.9,2.2c-2.9,1.4-6.5,1.4-10.1,1.4
		c-0.7,0-2.2,0-2.9,0s-2.2-0.7-4.3-0.7h-1.4c2.9,10.8,0,10.1-2.2,10.1c-1.4-0.7-2.9-0.7-3.6-1.4c-0.7,0-2.2-1.4-2.9-1.4
		s-1.4-1.4-2.2-1.4c-0.7-0.7-2.2-1.4-2.9-2.2s-1.4-2.2-2.2-3.6c-0.7-0.7,0-1.4-0.7-2.2c0-0.7-1.4-1.4-1.4-1.4
		c-0.7-1.4-0.7-2.9-1.4-4.3c0-0.7-1.4-0.7-1.4-1.4c-1.4-2.2-2.9-5-4.3-7.9c-1.4-1.4-2.9-3.6-3.6-5c-0.7-0.7-2.2-2.9-3.6-4.3
		c-0.7-0.7-1.4,0-2.2-0.7c-0.7,0-1.4-2.9-2.9-2.9c-0.7,0-0.7-1.4-1.4-1.4h-1.4c-0.7-0.7-1.4-1.4-2.9-2.2c-0.7-0.7-1.4-1.4-2.2-1.4
		c-1.4,0-1.4-1.4-2.9-1.4s-1.4-1.4-2.9-1.4c-0.7,0-2.2-0.7-3.6-1.4s-5-1.4-8.6-0.7c-1.4,0-3.6,2.2-5.7,2.9c-1.4,0.7-2.2,0-3.6,0.7
		c-7.2,2.2-13.6,3.6-20.1,5.7c0,0,0,0.7-0.7,0.7c-5.7,0-12.9,5-18.7,5.7c-1.4,0.7-3.6,0.7-5,0.7c-10.1,1.4-27.3,0-39.5-0.7
		c-3.6,0-7.9,0-11.5-0.7l-0.7-0.7c-1.4-0.7-2.9,0-5-0.7c-0.7,0-1.4-0.7-2.2-0.7c-0.7,0-0.7-0.7-0.7-0.7c-2.9-0.7-5-0.7-7.9-1.4
		c0,0,0-0.7-0.7-0.7c-1.4-0.7-2.2,0-3.6-0.7c-0.7,0-1.4-1.4-1.4-1.4c-0.7,0-0.7,0-1.4,0s-1.4-0.7-2.9-1.4c-2.2-0.7-4.3-1.4-6.5-2.2
		c0,0,0-0.7-0.7-0.7c-2.2,0-4.3-3.6-5.7-5c-1.4-1.4-3.6-2.9-5-4.3c-0.7-0.7-1.4-2.2-2.2-2.9c-0.7-0.7-1.4-0.7-2.2-0.7s0-0.7-0.7-0.7
		s-2.2-2.2-2.9-2.9c-0.7-0.7-2.2-1.4-2.2-2.2c-0.7-0.7-0.7-2.2-1.4-2.9c0-0.7-1.4-0.7-1.4-0.7v-1.4c-0.7-0.7-1.4-1.4-2.2-2.9
		c0-0.7-0.7-0.7-0.7-1.4l-0.7-2.2h-0.7v-1.4c-0.7-0.7-1.4-2.9-2.2-4.3V573h-0.7c-0.7-0.7,0-2.2-0.7-2.9c0-0.7-1.4-0.7-1.4-0.7V568
		c-0.7-0.7-0.7-0.7-1.4-2.9c-1.4-5.7,0-12.2-2.9-18c-2.9-2.2-5.7-2.2-9.3-2.9c-2.9-0.7-5-0.7-7.9-1.4h-1.4c-0.7-0.7-0.7-0.7-1.4-0.7
		l-2.2-0.7c-0.7-0.7-2.2-0.7-3.6-1.4c-0.7,0-1.4-1.4-1.4-1.4h-1.4v-0.7h-1.4v-0.7h-1.4c-0.7-1.4-4.3-2.9-5.7-4.3
		c-0.7-0.7-0.7-1.4-1.4-1.4h-1.4v-0.7c-1.4-0.7-2.2-0.7-2.9-1.4c-1.4-0.7-2.9-2.9-3.6-3.6c-2.9-2.9-5-5-7.9-9.3
		c-0.7-0.7-2.2-1.4-2.2-2.2v-1.4l-1.4-0.7v-1.4c-1.4-0.7-1.4-1.4-2.2-2.9c0-0.7-0.7,0-0.7-0.7v-0.7c-0.7-0.7-2.2-1.4-2.2-2.2
		c0-0.7-0.7-0.7-0.7-1.4c-0.7-0.7-2.2-2.9-2.2-4.3c-0.7-3.6-2.9-7.2-4.3-10.8c-0.7-0.7,0-2.2-0.7-2.9c0-0.7-1.4-1.4-1.4-1.4
		c-0.7-1.4,0-2.9-0.7-5c0-0.7-0.7-2.2-0.7-2.9s-0.7-2.2-1.4-3.6c-1.4-3.6-2.2-7.2-2.9-11.5c-2.2-7.9-2.9-16.5-5-24.4
		c-1.4-2.2-4.3-2.2-5.7-2.9c-6.5-2.2-12.2-3.6-19.4-6.5c0,0,0-0.7-0.7-0.7c-1.4,0-2.2-0.7-3.6-1.4h-1.4v-0.7
		c-2.2-0.7-4.3-1.4-6.5-2.2c-0.7,0,0-0.7-0.7-0.7c-1.4,0-1.4-1.4-2.9-1.4c-0.7,0-0.7-1.4-1.4-1.4h-1.4c-0.7-0.7-1.4-1.4-2.2-2.9
		c0-0.7-1.4-1.4-1.4-1.4c-0.7-2.2-1.4-5.7-2.2-10.1c-0.7-3.6-1.4-7.2-1.4-10.8c0-5,0.7-9.3,0.7-13.6c0-2.9-0.7-5.7-0.7-9.3
		c0-3.6,0.7-6.5,0-10.1c-0.7-3.6-0.7-12.9,0-18c0-3.6,1.4-6.5,1.4-10.1c0-3.6,0-8.6,0.7-11.5c0.7-2.2,0-6.5,0-10.1
		c0-3.6,0.7-6.5,1.4-9.3c0-1.4,0-3.6,0.7-5c0.7-1.4,1.4-2.2,1.4-3.6c0.7-2.2,1.4-3.6,2.2-5.7V285c0.7-0.7,0.7-1.4,1.4-2.2
		c0.7-1.4,1.4-2.2,2.2-3.6c0-0.7,0.7,0,0.7-0.7s1.4-2.2,2.9-2.9c0.7-0.7,0.7-1.4,1.4-1.4h1.4c1.4-1.4,5-2.2,9.3-2.2
		c3.6,0,6.5,0,10.1,0c4.3,0,7.2-0.7,10.8,0c2.2,0.7,5,0,8.6,0c12.9,0.7,25.9,1.4,39.5,0c2.2-3.6,2.2-8.6,2.2-12.9
		c0.7-7.9,1.4-16.5,2.2-26.6c1.4-15.8,4.3-34.5,5.7-51.7c0.7-5.7,0-11.5,1.4-15.8c0,0,0.7,0,0.7-0.7c0-0.7,0.7-2.9,1.4-4.3
		c0.7-2.9,2.9-5,2.9-7.9c4.3-2.2,6.5-5.7,12.2-6.5c3.6-0.7,8.6,0,12.2,0.7c0,0,0,0.7,0.7,0.7c1.4,0,2.2,0.7,3.6,1.4
		c0.7,0.7,0.7,0.7,1.4,1.4c1.4,0.7,2.2,0.7,2.9,2.2c0.7,0.7,0.7,1.4,1.4,2.2c0.7,0.7,1.4,3.6,2.2,5.7c2.2,5,3.6,9.3,2.9,15.1
		c0,0.7,0,0.7,0,1.4c0,0.7-0.7,2.2-0.7,4.3s-0.7,7.2-1.4,11.5c-0.7,2.9-0.7,9.3-1.4,14.4c-0.7,6.5-0.7,12.2-2.2,17.2
		c-0.7,1.4-1.4,2.9-1.4,4.3c-0.7,3.6,0,7.2,0,11.5c0,0.7-0.7,1.4-0.7,2.2c0,2.2-0.7,4.3-0.7,6.5c-1.4,7.9-2.2,15.1,0,18
		c2.9,3.6,7.2,2.9,12.9,3.6c0,0,0,0.7,0.7,0.7c3.6,0,10.8,0,15.1,0C613.3,265.6,621.2,267.7,630.6,264.9z M724.7,348.2
		c0-2.9,0-6.5,0-8.6c0-0.7,0.7-0.7,0.7-0.7c0-1.4-0.7-2.9-0.7-4.3c0-2.9,0-12.9-1.4-14.4v-1.4c0-0.7-1.4-0.7-1.4-1.4
		c-2.9-4.3-11.5-4.3-20.1-5c-12.2-0.7-24.4-2.2-34.5-2.9c-0.7,0-0.7-0.7-0.7-0.7c-11.5-1.4-24.4-2.2-36.6-2.9
		c-7.9-0.7-16.5-0.7-25.1-0.7c-8.6,0-16.5-1.4-25.1-1.4c-18-0.7-40.2-2.9-53.9,0c-6.5,1.4-18,1.4-25.1,0.7c-2.9,0-2.2-0.7-4.3-0.7
		c-0.7,0-0.7,0.7-0.7,0.7c-5,0-9.3,0-13.6,0c-4.3,0-8.6-2.2-12.2,0c-2.2,3.6-1.4,8.6-1.4,13.6c0,4.3,0,10.1,0,15.1
		c0,10.1,1.4,20.8,1.4,29.4c0,6.5-2.2,23,2.2,28c5,5.7,24.4,2.9,34.5,2.2c16.5-0.7,35.2-0.7,48.1-1.4c10.8-0.7,20.1,0,30.2,0
		c2.9,0,3.6,0,4.3,0.7c0.7,1.4,3.6-0.7,3.6-0.7c3.6,0,7.2,0,10.8,0c6.5,0,12.9-0.7,19.4-0.7c3.6,0,7.9,0.7,11.5,0.7
		c11.5,0.7,25.9-0.7,36.6,0c0.7,0,0.7,0.7,0.7,0.7c3.6,0,7.2-1.4,10.8-1.4c12.2-1.4,25.1,0,35.2-2.9
		C724.7,378.3,723.9,360.4,724.7,348.2z M636.3,430.8c-2.2,0-4.3-0.7-6.5-0.7c-5.7,0-13.6-0.7-18.7,0c-7.9,0.7-18,0.7-25.9,0.7
		c-2.9,0-5,0.7-7.9,0.7c-1.4,0-2.9-0.7-4.3-0.7c-5-0.7-7.9-0.7-11.5-0.7c-3.6,0-7.2,0.7-9.3,0.7c-5,0-10.1,0-15.1,0
		c-4.3,0-10.1-0.7-13.6,2.2c0.7,5.7,2.9,11.5,5,17.2c1.4,2.9,3.6,5.7,3.6,8.6c0,0.7,0.7,0.7,0.7,0.7c0.7,2.9,0.7,6.5,2.2,7.9v1.4
		c0,0.7,1.4,0.7,1.4,1.4c0.7,1.4,0.7,2.9,1.4,3.6c1.4,2.2,2.9,5,3.6,6.5s2.2,3.6,2.9,4.3c0,0.7,0,1.4,0.7,2.2
		c0.7,0.7,2.2,1.4,2.9,2.2c0.7,0.7,0,1.4,0.7,2.2c1.4,2.2,4.3,2.9,5,4.3l2.2,0.7c1.4,0.7,2.2,1.4,2.9,2.2h1.4l0.7,1.4h1.4
		c0.7,0.7,0.7,1.4,1.4,1.4s0,0.7,0.7,0.7c2.2,0.7,3.6,2.2,5.7,2.2c3.6,0.7,3.6,0.7,6.5,0c5-0.7,10.1-0.7,12.9-1.4
		c4.3-0.7,7.9-1.4,12.2-2.2c2.9-0.7,6.5-2.2,9.3-2.9c2.2-0.7,5-2.9,6.5-2.9c0.7,0,1.4,0,1.4,0c0.7,0,0.7-1.4,1.4-1.4
		c2.2-0.7,2.9-0.7,4.3-1.4c0.7,0,0.7-1.4,1.4-1.4c2.2-1.4,5-2.9,6.5-4.3c2.2-1.4,7.2-5,7.9-6.5c0-1.4,1.4-1.4,2.2-2.2V476l1.4-0.7
		v-1.4c0.7-0.7,1.4-0.7,1.4-1.4s0.7-0.7,0.7-0.7c0.7-1.4,0.7-2.9,0.7-4.3c0.7-1.4,1.4-2.9,1.4-4.3c0.7-3.6,1.4-10.1,2.2-12.2
		c0-0.7,0-2.2,0-2.9c0.7-4.3,2.9-10.8,0.7-15.8C649.2,427.9,642.8,430.8,636.3,430.8z"/>
</g>
<g id="material" display="none">
	<linearGradient id="SVGID_2_" gradientUnits="userSpaceOnUse" x1="550.4583" y1="65.1498" x2="729.8274" y2="734.5645">
		<stop  offset="0" style="stop-color:#94CBFF"/>
		<stop  offset="1" style="stop-color:#2A89FF"/>
	</linearGradient>
	<circle display="inline" fill="url(#SVGID_2_)" cx="640.1" cy="399.9" r="346.4"/>
	<path display="inline" fill="#FFFFFF" d="M630.6,264.9c2.2-10.1,1.4-19.4,2.2-29.4V234c1.4-0.7,1.4-5.7,1.4-8.6s0.7-5.7,0.7-8.6
		c0-2.2,0.7-5,0.7-7.9c0-7.2-1.4-15.1-0.7-23c0.7-5.7,2.2-11.5,2.2-18c0-1.4-0.7-3.6,0-5c0-0.7,0.7-5,1.4-6.5c0-0.7,0.7-2.2,0.7-2.9
		c0-0.7,1.4-1.4,1.4-1.4c0.7-0.7,0-2.2,0.7-2.9c0-0.7,1.4-0.7,1.4-1.4c1.4-2.2,4.3-3.6,8.6-4.3c0.7,0,2.2,0,2.9,0
		c5-1.4,12.2-0.7,16.5,0.7h1.4v0.7h1.4v0.7c1.4,0.7,3.6,0,4.3,0.7c0,0,1.4,1.4,2.2,2.2c0.7,0.7,0,1.4,0.7,2.2l1.4,0.7v1.4h0.7v1.4
		c0.7,0.7,0.7,0.7,0.7,1.4c0.7,2.2,0.7,8.6,0,13.6c0,0-0.7,0-0.7,0.7c0,2.2-0.7,5-1.4,7.9c0,0.7,0,0.7,0,1.4
		c-0.7,2.2-1.4,8.6-1.4,12.9c0,0.7-0.7,1.4-0.7,2.2c0,2.2,0.7,6.5,0,9.3c0,2.2-0.7,3.6-1.4,5c0,0-0.7,0-0.7,0.7
		c-0.7,3.6-0.7,10.1-1.4,15.1c-0.7,5.7-1.4,10.1-2.2,15.8c0,1.4-0.7,3.6-0.7,5c0,3.6,1.4,6.5,1.4,10.1c0,3.6,0,7.2,0,11.5
		c5,2.9,9.3,2.2,15.8,2.9c2.2,0,3.6,0.7,5,0.7c7.2,0.7,14.4,0.7,20.8,2.2c1.4,0,3.6,0.7,6.5,1.4c0.7,0,0.7,0,1.4,0s1.4,0.7,2.2,0.7
		s1.4,0.7,2.2,0.7c0.7,0,1.4,1.4,2.9,1.4c2.2,0.7,3.6,0,5,0.7c2.2,0.7,4.3,0.7,6.5,1.4c0.7,0,1.4,0.7,2.2,0.7s0.7,0.7,0.7,0.7
		c1.4,0.7,3.6,0,5,0.7c0.7,0,0.7,1.4,1.4,1.4s1.4,0,2.2,0.7c0,0,3.6,3.6,3.6,4.3c0,1.4,1.4,1.4,1.4,2.9c0,0.7,1.4,0.7,1.4,1.4
		c0,0.7,0,1.4,0,1.4c0,0.7,1.4,0.7,1.4,0.7v1.4h0.7c0.7,1.4,0.7,4.3,1.4,5c0,0.7,0.7,0,0.7,0.7c0,0,0.7,1.4,0.7,2.2l0.7,0.7
		c0.7,3.6,0,7.9,0.7,12.2l0.7,0.7c0,0.7,0,2.9,0,4.3c0,2.2,0.7,3.6,0.7,5c0,3.6-0.7,7.2-0.7,10.8s-0.7,7.2-0.7,10.8
		c-0.7,7.2,0,15.1-0.7,22.3c0,4.3-2.2,8.6-2.2,12.9c-0.7,5.7,0.7,10.1,0,13.6c0,1.4-0.7,3.6-1.4,5c0,0.7-0.7,0-0.7,0.7
		c0,2.2-2.2,3.6-3.6,5c-0.7,0.7-1.4,1.4-2.2,2.2v1.4l-1.4,0.7c-0.7,0.7-0.7,2.2-1.4,2.9H752l-0.7,1.4h-1.4l-0.7,1.4h-1.4l-0.7,1.4
		c-2.9,1.4-6.5,1.4-10.8,2.2c0,0,0,0.7-0.7,0.7c-2.9,0-6.5,1.4-10.1,1.4c-6.5,0.7-13.6-0.7-20.1,2.2c-1.4,4.3,0.7,9.3,0.7,13.6
		c0,1.4-0.7,1.4-0.7,2.9c-0.7,3.6-0.7,7.9-1.4,12.2c-0.7,2.2-0.7,4.3-1.4,6.5v1.4c-1.4,0.7-1.4,4.3-2.2,6.5v1.4
		c-1.4,0.7,0.7,3.6-0.7,4.3c-1.4,0.7-1.4,3.6-2.2,5c-0.7,1.4-2.2,5-3.6,6.5c-0.7,0.7-2.2,2.2-2.9,2.9c-0.7,0.7-1.4,0.7-1.4,1.4v1.4
		c-1.4,0.7-2.2,2.2-2.9,3.6c-0.7,0.7-1.4,0.7-1.4,1.4c-0.7,0.7,0,1.4-0.7,2.2c-0.7,0.7-2.2,2.2-2.9,2.9c-1.4,2.2-2.9,3.6-5,5
		c-0.7,0,0,0.7-0.7,0.7c-1.4,0-2.9,2.2-4.3,2.9c-1.4,1.4-2.9,2.9-5,4.3c-0.7,0.7-2.9,3.6-4.3,3.6c-0.7,0-0.7,1.4-1.4,1.4h-1.4
		c0,0-2.2,2.2-3.6,2.2s-4.3,2.2-5.7,2.9c-2.9,1.4-5,2.2-8.6,2.9c0,0,0,0.7-0.7,0.7c-1.4,0-2.2,0-2.9,0.7c-0.7,0-2.2,0.7-3.6,1.4
		c-2.2,0.7-3.6,0.7-5,1.4c0,0,0,0.7-0.7,0.7c-2.9,0-6.5,0.7-9.3,2.9c0,5.7,0,12.2,2.2,15.8l0.7,0.7c0.7,0.7,0,2.2,0.7,2.9l1.4,0.7
		c0,0.7,0,1.4,0,1.4l1.4,0.7c0.7,0.7,0.7,2.2,2.2,3.6h1.4c0.7,0.7,0.7,1.4,2.2,2.2c0.7,0.7,1.4,0.7,2.2,1.4c1.4,0.7,3.6,2.2,5.7,2.9
		h1.4c0.7,0.7,1.4,1.4,2.2,1.4h1.4v0.7h1.4v0.7h1.4c0.7,0.7,2.2,0.7,4.3,1.4c0,0,0,0.7,0.7,0.7h2.2c1.4,2.2,7.9,2.9,12.2,2.2
		c2.2,0,3.6-0.7,5.7-1.4c3.6-0.7,12.2,0,15.8-1.4h1.4v-0.7h1.4l0.7-1.4h1.4l0.7-1.4c0.7-0.7,2.2,0,2.9-0.7c0,0,0-0.7,0.7-0.7
		c2.9,0,7.2-2.9,10.8-3.6c7.2-2.9,15.1-6.5,24.4-6.5c4.3,0,10.1,0,15.1,0.7c5,0,10.1,0.7,14.4,1.4s8.6,2.2,12.9,2.9
		c2.9,0.7,5,0,7.9,0.7c0,0,0,0.7,0.7,0.7c2.2,0,2.2,0.7,3.6,0.7s2.2,0.7,3.6,1.4c0.7,0,2.2,0,2.9,0.7c0.7,0,1.4,1.4,1.4,1.4
		c0.7,0.7,1.4,0,2.2,0.7c0.7,0.7,0.7,1.4,1.4,1.4h1.4c0.7,0.7,1.4,0.7,2.2,1.4c1.4,0.7,2.2,1.4,3.6,2.2c0.7,0,0,0.7,0.7,0.7h0.7
		c0.7,0.7,2.2,2.2,2.9,2.9c0.7,0.7,1.4,0,2.2,0.7c0.7,0,0.7,1.4,0.7,1.4c0.7,0.7,1.4,0,2.2,0.7c0.7,0.7,1.4,2.2,2.9,2.9
		c2.9,1.4,5,5.7,7.9,9.3c1.4,2.2,2.9,3.6,4.3,5.7c0.7,0.7,1.4,0.7,1.4,1.4v1.4l1.4,0.7v1.4l1.4,0.7v1.4c1.4,0.7,2.9,2.9,3.6,5
		c0.7,0.7,0.7,2.2,1.4,3.6c0.7,0.7,0.7,1.4,0.7,2.2c0,0.7,0.7,4.3,1.4,7.9c0,2.2,0.7,5,0.7,6.5c0,0-0.7,0-0.7,0.7
		c0,2.2-0.7,4.3-2.2,5.7c-0.7,0.7-0.7,1.4-1.4,2.2c-0.7,0.7-2.2,4.3-3.6,5h-1.4c-0.7,0.7-1.4,1.4-2.9,2.2c-2.9,1.4-6.5,1.4-10.1,1.4
		c-0.7,0-2.2,0-2.9,0s-2.2-0.7-4.3-0.7h-1.4c2.9,10.8,0,10.1-2.2,10.1c-1.4-0.7-2.9-0.7-3.6-1.4c-0.7,0-2.2-1.4-2.9-1.4
		s-1.4-1.4-2.2-1.4c-0.7-0.7-2.2-1.4-2.9-2.2s-1.4-2.2-2.2-3.6c-0.7-0.7,0-1.4-0.7-2.2c0-0.7-1.4-1.4-1.4-1.4
		c-0.7-1.4-0.7-2.9-1.4-4.3c0-0.7-1.4-0.7-1.4-1.4c-1.4-2.2-2.9-5-4.3-7.9c-1.4-1.4-2.9-3.6-3.6-5c-0.7-0.7-2.2-2.9-3.6-4.3
		c-0.7-0.7-1.4,0-2.2-0.7c-0.7,0-1.4-2.9-2.9-2.9c-0.7,0-0.7-1.4-1.4-1.4h-1.4c-0.7-0.7-1.4-1.4-2.9-2.2c-0.7-0.7-1.4-1.4-2.2-1.4
		c-1.4,0-1.4-1.4-2.9-1.4s-1.4-1.4-2.9-1.4c-0.7,0-2.2-0.7-3.6-1.4s-5-1.4-8.6-0.7c-1.4,0-3.6,2.2-5.7,2.9c-1.4,0.7-2.2,0-3.6,0.7
		c-7.2,2.2-13.6,3.6-20.1,5.7c0,0,0,0.7-0.7,0.7c-5.7,0-12.9,5-18.7,5.7c-1.4,0.7-3.6,0.7-5,0.7c-10.1,1.4-27.3,0-39.5-0.7
		c-3.6,0-7.9,0-11.5-0.7l-0.7-0.7c-1.4-0.7-2.9,0-5-0.7c-0.7,0-1.4-0.7-2.2-0.7c-0.7,0-0.7-0.7-0.7-0.7c-2.9-0.7-5-0.7-7.9-1.4
		c0,0,0-0.7-0.7-0.7c-1.4-0.7-2.2,0-3.6-0.7c-0.7,0-1.4-1.4-1.4-1.4c-0.7,0-0.7,0-1.4,0s-1.4-0.7-2.9-1.4c-2.2-0.7-4.3-1.4-6.5-2.2
		c0,0,0-0.7-0.7-0.7c-2.2,0-4.3-3.6-5.7-5c-1.4-1.4-3.6-2.9-5-4.3c-0.7-0.7-1.4-2.2-2.2-2.9c-0.7-0.7-1.4-0.7-2.2-0.7s0-0.7-0.7-0.7
		s-2.2-2.2-2.9-2.9c-0.7-0.7-2.2-1.4-2.2-2.2c-0.7-0.7-0.7-2.2-1.4-2.9c0-0.7-1.4-0.7-1.4-0.7v-1.4c-0.7-0.7-1.4-1.4-2.2-2.9
		c0-0.7-0.7-0.7-0.7-1.4l-0.7-2.2h-0.7v-1.4c-0.7-0.7-1.4-2.9-2.2-4.3V573h-0.7c-0.7-0.7,0-2.2-0.7-2.9c0-0.7-1.4-0.7-1.4-0.7V568
		c-0.7-0.7-0.7-0.7-1.4-2.9c-1.4-5.7,0-12.2-2.9-18c-2.9-2.2-5.7-2.2-9.3-2.9c-2.9-0.7-5-0.7-7.9-1.4h-1.4c-0.7-0.7-0.7-0.7-1.4-0.7
		l-2.2-0.7c-0.7-0.7-2.2-0.7-3.6-1.4c-0.7,0-1.4-1.4-1.4-1.4h-1.4v-0.7h-1.4v-0.7h-1.4c-0.7-1.4-4.3-2.9-5.7-4.3
		c-0.7-0.7-0.7-1.4-1.4-1.4h-1.4v-0.7c-1.4-0.7-2.2-0.7-2.9-1.4c-1.4-0.7-2.9-2.9-3.6-3.6c-2.9-2.9-5-5-7.9-9.3
		c-0.7-0.7-2.2-1.4-2.2-2.2v-1.4l-1.4-0.7v-1.4c-1.4-0.7-1.4-1.4-2.2-2.9c0-0.7-0.7,0-0.7-0.7v-0.7c-0.7-0.7-2.2-1.4-2.2-2.2
		c0-0.7-0.7-0.7-0.7-1.4c-0.7-0.7-2.2-2.9-2.2-4.3c-0.7-3.6-2.9-7.2-4.3-10.8c-0.7-0.7,0-2.2-0.7-2.9c0-0.7-1.4-1.4-1.4-1.4
		c-0.7-1.4,0-2.9-0.7-5c0-0.7-0.7-2.2-0.7-2.9s-0.7-2.2-1.4-3.6c-1.4-3.6-2.2-7.2-2.9-11.5c-2.2-7.9-2.9-16.5-5-24.4
		c-1.4-2.2-4.3-2.2-5.7-2.9c-6.5-2.2-12.2-3.6-19.4-6.5c0,0,0-0.7-0.7-0.7c-1.4,0-2.2-0.7-3.6-1.4h-1.4v-0.7
		c-2.2-0.7-4.3-1.4-6.5-2.2c-0.7,0,0-0.7-0.7-0.7c-1.4,0-1.4-1.4-2.9-1.4c-0.7,0-0.7-1.4-1.4-1.4h-1.4c-0.7-0.7-1.4-1.4-2.2-2.9
		c0-0.7-1.4-1.4-1.4-1.4c-0.7-2.2-1.4-5.7-2.2-10.1c-0.7-3.6-1.4-7.2-1.4-10.8c0-5,0.7-9.3,0.7-13.6c0-2.9-0.7-5.7-0.7-9.3
		c0-3.6,0.7-6.5,0-10.1c-0.7-3.6-0.7-12.9,0-18c0-3.6,1.4-6.5,1.4-10.1c0-3.6,0-8.6,0.7-11.5c0.7-2.2,0-6.5,0-10.1
		c0-3.6,0.7-6.5,1.4-9.3c0-1.4,0-3.6,0.7-5c0.7-1.4,1.4-2.2,1.4-3.6c0.7-2.2,1.4-3.6,2.2-5.7V285c0.7-0.7,0.7-1.4,1.4-2.2
		c0.7-1.4,1.4-2.2,2.2-3.6c0-0.7,0.7,0,0.7-0.7s1.4-2.2,2.9-2.9c0.7-0.7,0.7-1.4,1.4-1.4h1.4c1.4-1.4,5-2.2,9.3-2.2
		c3.6,0,6.5,0,10.1,0c4.3,0,7.2-0.7,10.8,0c2.2,0.7,5,0,8.6,0c12.9,0.7,25.9,1.4,39.5,0c2.2-3.6,2.2-8.6,2.2-12.9
		c0.7-7.9,1.4-16.5,2.2-26.6c1.4-15.8,4.3-34.5,5.7-51.7c0.7-5.7,0-11.5,1.4-15.8c0,0,0.7,0,0.7-0.7c0-0.7,0.7-2.9,1.4-4.3
		c0.7-2.9,2.9-5,2.9-7.9c4.3-2.2,6.5-5.7,12.2-6.5c3.6-0.7,8.6,0,12.2,0.7c0,0,0,0.7,0.7,0.7c1.4,0,2.2,0.7,3.6,1.4
		c0.7,0.7,0.7,0.7,1.4,1.4c1.4,0.7,2.2,0.7,2.9,2.2c0.7,0.7,0.7,1.4,1.4,2.2c0.7,0.7,1.4,3.6,2.2,5.7c2.2,5,3.6,9.3,2.9,15.1
		c0,0.7,0,0.7,0,1.4c0,0.7-0.7,2.2-0.7,4.3s-0.7,7.2-1.4,11.5c-0.7,2.9-0.7,9.3-1.4,14.4c-0.7,6.5-0.7,12.2-2.2,17.2
		c-0.7,1.4-1.4,2.9-1.4,4.3c-0.7,3.6,0,7.2,0,11.5c0,0.7-0.7,1.4-0.7,2.2c0,2.2-0.7,4.3-0.7,6.5c-1.4,7.9-2.2,15.1,0,18
		c2.9,3.6,7.2,2.9,12.9,3.6c0,0,0,0.7,0.7,0.7c3.6,0,10.8,0,15.1,0C613.3,265.6,621.2,267.7,630.6,264.9z M724.7,348.2
		c0-2.9,0-6.5,0-8.6c0-0.7,0.7-0.7,0.7-0.7c0-1.4-0.7-2.9-0.7-4.3c0-2.9,0-12.9-1.4-14.4v-1.4c0-0.7-1.4-0.7-1.4-1.4
		c-2.9-4.3-11.5-4.3-20.1-5c-12.2-0.7-24.4-2.2-34.5-2.9c-0.7,0-0.7-0.7-0.7-0.7c-11.5-1.4-24.4-2.2-36.6-2.9
		c-7.9-0.7-16.5-0.7-25.1-0.7c-8.6,0-16.5-1.4-25.1-1.4c-18-0.7-40.2-2.9-53.9,0c-6.5,1.4-18,1.4-25.1,0.7c-2.9,0-2.2-0.7-4.3-0.7
		c-0.7,0-0.7,0.7-0.7,0.7c-5,0-9.3,0-13.6,0c-4.3,0-8.6-2.2-12.2,0c-2.2,3.6-1.4,8.6-1.4,13.6c0,4.3,0,10.1,0,15.1
		c0,10.1,1.4,20.8,1.4,29.4c0,6.5-2.2,23,2.2,28c5,5.7,24.4,2.9,34.5,2.2c16.5-0.7,35.2-0.7,48.1-1.4c10.8-0.7,20.1,0,30.2,0
		c2.9,0,3.6,0,4.3,0.7c0.7,1.4,3.6-0.7,3.6-0.7c3.6,0,7.2,0,10.8,0c6.5,0,12.9-0.7,19.4-0.7c3.6,0,7.9,0.7,11.5,0.7
		c11.5,0.7,25.9-0.7,36.6,0c0.7,0,0.7,0.7,0.7,0.7c3.6,0,7.2-1.4,10.8-1.4c12.2-1.4,25.1,0,35.2-2.9
		C724.7,378.3,723.9,360.4,724.7,348.2z M636.3,430.8c-2.2,0-4.3-0.7-6.5-0.7c-5.7,0-13.6-0.7-18.7,0c-7.9,0.7-18,0.7-25.9,0.7
		c-2.9,0-5,0.7-7.9,0.7c-1.4,0-2.9-0.7-4.3-0.7c-5-0.7-7.9-0.7-11.5-0.7c-3.6,0-7.2,0.7-9.3,0.7c-5,0-10.1,0-15.1,0
		c-4.3,0-10.1-0.7-13.6,2.2c0.7,5.7,2.9,11.5,5,17.2c1.4,2.9,3.6,5.7,3.6,8.6c0,0.7,0.7,0.7,0.7,0.7c0.7,2.9,0.7,6.5,2.2,7.9v1.4
		c0,0.7,1.4,0.7,1.4,1.4c0.7,1.4,0.7,2.9,1.4,3.6c1.4,2.2,2.9,5,3.6,6.5s2.2,3.6,2.9,4.3c0,0.7,0,1.4,0.7,2.2
		c0.7,0.7,2.2,1.4,2.9,2.2c0.7,0.7,0,1.4,0.7,2.2c1.4,2.2,4.3,2.9,5,4.3l2.2,0.7c1.4,0.7,2.2,1.4,2.9,2.2h1.4l0.7,1.4h1.4
		c0.7,0.7,0.7,1.4,1.4,1.4s0,0.7,0.7,0.7c2.2,0.7,3.6,2.2,5.7,2.2c3.6,0.7,3.6,0.7,6.5,0c5-0.7,10.1-0.7,12.9-1.4
		c4.3-0.7,7.9-1.4,12.2-2.2c2.9-0.7,6.5-2.2,9.3-2.9c2.2-0.7,5-2.9,6.5-2.9c0.7,0,1.4,0,1.4,0c0.7,0,0.7-1.4,1.4-1.4
		c2.2-0.7,2.9-0.7,4.3-1.4c0.7,0,0.7-1.4,1.4-1.4c2.2-1.4,5-2.9,6.5-4.3c2.2-1.4,7.2-5,7.9-6.5c0-1.4,1.4-1.4,2.2-2.2V476l1.4-0.7
		v-1.4c0.7-0.7,1.4-0.7,1.4-1.4s0.7-0.7,0.7-0.7c0.7-1.4,0.7-2.9,0.7-4.3c0.7-1.4,1.4-2.9,1.4-4.3c0.7-3.6,1.4-10.1,2.2-12.2
		c0-0.7,0-2.2,0-2.9c0.7-4.3,2.9-10.8,0.7-15.8C649.2,427.9,642.8,430.8,636.3,430.8z"/>
</g>
</svg>
